<?xml version="1.0" encoding="utf-8"?>
<!-- Generator: Adobe Illustrator 22.1.0, SVG Export Plug-In . SVG Version: 6.00 Build 0)  -->
<svg version="1.1" id="Layer_1" xmlns="http://www.w3.org/2000/svg" xmlns:xlink="http://www.w3.org/1999/xlink" x="0px" y="0px"
	 viewBox="0 0 443.9 293.9" style="enable-background:new 0 0 443.9 293.9;" xml:space="preserve">
<style type="text/css">
	.st0{fill:#FFFFFF;}
	.st1{fill:#2397C6;}
	.st2{fill:#E52627;}
</style>
<g>
	<path class="st0" d="M254.3,134.4V92.5c0-0.9,0.3-1.6,1-2.2c0.7-0.6,1.4-0.9,2.1-0.9h13.6c1.3,0,2.7,0.2,4.2,0.7
		c1.5,0.5,3,1.3,4.7,2.5c1.7,1.2,3.1,2.7,4.4,4.4c1.3,1.7,2.4,4,3.2,6.9c0.9,2.9,1.3,6,1.3,9.5c0,3.5-0.4,6.7-1.3,9.5
		c-0.9,2.9-1.9,5.2-3.2,6.9c-1.3,1.7-2.8,3.2-4.4,4.4c-1.7,1.2-3.2,2-4.7,2.5c-1.5,0.5-2.8,0.7-4.2,0.7h-13.6c-0.9,0-1.6-0.3-2.2-1
		C254.6,135.8,254.3,135.1,254.3,134.4z M260.6,131.2h10.5c0.6,0,1.3-0.1,2.2-0.4c0.8-0.2,1.8-0.8,2.9-1.6c1.1-0.8,2.2-1.8,3.1-3
		c0.9-1.2,1.7-3,2.4-5.2c0.7-2.2,1-4.8,1-7.6c0-2.8-0.3-5.4-1-7.6c-0.7-2.2-1.4-4-2.4-5.2c-0.9-1.2-1.9-2.2-3.1-3
		c-1.1-0.8-2.1-1.3-2.9-1.6c-0.8-0.2-1.5-0.4-2.2-0.4h-10.5V131.2z"/>
	<path class="st0" d="M292.7,137.4c-0.2-0.1-0.4-0.2-0.6-0.3c-0.2-0.2-0.3-0.3-0.5-0.5c-0.1-0.2-0.2-0.4-0.3-0.6
		c-0.1-0.2-0.1-0.4-0.1-0.6c0-0.2,0-0.5,0.1-0.7l10.1-29.4c0.2-0.4,0.4-0.8,0.8-1.1c0.4-0.3,0.8-0.4,1.2-0.4h1.3h1.3
		c0.5,0,0.9,0.1,1.3,0.4c0.4,0.3,0.7,0.6,0.8,1l10.1,29.4c0.1,0.2,0.1,0.5,0.1,0.7c0,0.3-0.1,0.6-0.2,0.9c-0.1,0.3-0.3,0.5-0.5,0.7
		c-0.2,0.2-0.5,0.4-0.8,0.5c-0.2,0.1-0.5,0.1-0.7,0.1c-0.5,0-0.9-0.1-1.3-0.4s-0.7-0.6-0.8-1.1l-1.8-5.1h-15.1l-1.8,5.1
		c-0.2,0.4-0.4,0.8-0.8,1.1s-0.8,0.4-1.3,0.4C293.1,137.5,292.9,137.5,292.7,137.4z M298.8,126.5h12l-6-17.5L298.8,126.5z"/>
	<path class="st0" d="M322.6,89.6c0.2,0,0.3-0.1,0.5-0.1c0.2,0,0.4-0.1,0.6-0.1c0.6,0,1.2,0.2,1.8,0.6c0.6,0.4,1,0.9,1.2,1.5
		l13.3,35.5l13.3-35.5c0.2-0.4,0.4-0.7,0.7-1c0.3-0.3,0.7-0.5,1-0.7c0.4-0.2,0.8-0.3,1.2-0.3c0.1,0,0.2,0,0.2,0s0.1,0,0.2,0
		c0.1,0,0.2,0,0.2,0s0.1,0,0.2,0c0.1,0,0.1,0.1,0.2,0.1c0.2,0.1,0.4,0.2,0.7,0.4c0.2,0.2,0.4,0.3,0.6,0.5c0.2,0.2,0.3,0.4,0.4,0.6
		c0.1,0.2,0.2,0.5,0.3,0.7s0.1,0.5,0.1,0.7c0,0.4-0.1,0.8-0.2,1.1l-15.7,41.9c-0.2,0.6-0.6,1.1-1.1,1.5c-0.5,0.4-1.1,0.6-1.8,0.6h-1
		c-0.7,0-1.3-0.2-1.8-0.6c-0.5-0.4-0.9-0.9-1.1-1.5l-15.7-41.9c0-0.2-0.1-0.3-0.1-0.5c0-0.2-0.1-0.4-0.1-0.6c0-0.6,0.2-1.2,0.6-1.8
		C321.5,90.2,322,89.8,322.6,89.6z"/>
	<path class="st0" d="M364,104.4c0.4-0.4,0.9-0.6,1.6-0.6c0.6,0,1.1,0.2,1.6,0.6c0.4,0.4,0.6,0.9,0.6,1.6v29.4
		c0,0.6-0.2,1.1-0.6,1.6c-0.4,0.4-0.9,0.6-1.6,0.6c-0.6,0-1.1-0.2-1.6-0.6c-0.4-0.4-0.6-0.9-0.6-1.6v-29.4
		C363.4,105.3,363.6,104.8,364,104.4z"/>
	<path class="st0" d="M378.3,136.9c-0.4,0.4-0.9,0.6-1.6,0.6s-1.1-0.2-1.6-0.6c-0.4-0.4-0.6-0.9-0.6-1.6v-29.4
		c0-0.6,0.2-1.1,0.7-1.6c0.5-0.4,1-0.6,1.5-0.6h0.7h1.1c0.4,0,0.8,0.1,1.1,0.3c0.4,0.2,0.6,0.5,0.8,0.8l13.9,24.7v-23.6
		c0-0.6,0.2-1.1,0.6-1.6c0.4-0.4,0.9-0.6,1.6-0.6s1.1,0.2,1.6,0.6c0.4,0.4,0.6,0.9,0.6,1.6v29.4c0,0.5-0.2,1-0.6,1.5
		s-0.9,0.7-1.6,0.7h-0.6h-0.8c-0.9,0-1.5-0.4-1.9-1.1l-14.2-25.3v24.2C378.9,135.9,378.7,136.4,378.3,136.9z"/>
	<path class="st0" d="M425.8,126.1c0.6,0,1.1,0.2,1.6,0.6c0.4,0.4,0.6,0.9,0.6,1.6c0,0.6-0.2,1.5-0.7,2.5s-1.1,2.1-2,3.1
		s-2,2-3.6,2.8c-1.5,0.8-3.2,1.1-5,1.1c-3.9,0-7.1-1.7-9.7-5.2c-2.6-3.4-3.9-7.5-3.9-12.1c0-3,0.6-5.8,1.7-8.4
		c1.1-2.6,2.7-4.8,4.8-6.4c2.1-1.6,4.4-2.4,7-2.4c1.4,0,2.8,0.2,4,0.7c1.3,0.5,2.2,1,2.9,1.6c0.7,0.6,1.3,1.3,1.9,2.1
		c0.6,0.8,0.9,1.4,1.1,1.7c0.1,0.3,0.3,0.6,0.3,0.8c0.1,0.2,0.1,0.5,0.1,0.7c0,0.5-0.1,0.9-0.4,1.3c-0.3,0.4-0.6,0.7-1,0.8
		c-0.1,0-0.2,0.1-0.4,0.1c-0.1,0-0.2,0-0.4,0c-0.5,0-0.9-0.1-1.3-0.4c-0.4-0.2-0.7-0.6-0.8-1c-0.1-0.3-0.3-0.6-0.5-0.9
		c-0.2-0.3-0.5-0.8-1-1.3c-0.5-0.6-1.1-1-2-1.4c-0.8-0.4-1.8-0.6-2.8-0.6c-2.4,0-4.5,1.2-6.4,3.7c-1.9,2.4-2.8,5.5-2.8,9.2
		s0.9,6.7,2.8,9.2c1.9,2.4,4,3.7,6.4,3.7c1,0,1.9-0.2,2.8-0.6c0.9-0.4,1.6-0.9,2.1-1.6c0.6-0.6,1-1.2,1.3-1.7s0.5-1,0.6-1.4
		c0-0.4,0.1-0.7,0.3-1c0.2-0.3,0.5-0.6,0.8-0.8S425.4,126.1,425.8,126.1z"/>
	<path class="st0" d="M434.3,104.4c0.4-0.4,0.9-0.6,1.6-0.6c0.6,0,1.1,0.2,1.6,0.6c0.4,0.4,0.6,0.9,0.6,1.6v29.4
		c0,0.6-0.2,1.1-0.6,1.6c-0.4,0.4-0.9,0.6-1.6,0.6c-0.6,0-1.1-0.2-1.6-0.6c-0.4-0.4-0.6-0.9-0.6-1.6v-29.4
		C433.6,105.3,433.9,104.8,434.3,104.4z"/>
	<path class="st0" d="M274.9,146.5c-0.6,4.3-1.1,9.4-1.4,9.4c-0.2,0-0.7-0.1-1-0.2c-0.4-0.1-0.7-0.3-0.7-0.9c0-2.9-2.1-7-5.6-7
		c-4.4,0-6.3,3.7-6.3,6.4c0,2.6,2.1,4.7,4.5,6.5c3.9,3.1,8.5,5.1,8.5,10.4c0,6.9-6.5,12.7-13.8,12.7c-3.3,0-6.5-0.7-9.3-1.4
		c0.1-0.9,0.3-2.7,0.3-4.9c0-1.7-0.1-4-0.1-4.4c0-0.4,0.9-0.5,1.2-0.5s1,0.3,1.2,0.5c0,2.9,1.6,7.9,6.8,7.9c4.7,0,7.3-4.4,7.3-7.4
		c0-3.3-3.7-5.5-6.5-7.5c-3.1-2.4-6.2-4.8-6.2-8.8c0-7.4,6.9-12.3,13.3-12.3C269.8,145,271.8,146.1,274.9,146.5z"/>
	<path class="st0" d="M298.5,167.1c0,8.4-6.6,16.7-13.3,16.7c-5.5,0-7.8-3.7-7.8-9c0-7.9,6.5-16.8,13.3-16.8
		C296.1,158,298.5,161.8,298.5,167.1z M283.1,175.8c0,3.3,1.1,5.3,2.8,5.3c4,0,6.8-9.2,6.7-15c0-3.2-0.9-5.3-2.7-5.3
		C286.3,160.8,283.1,169.4,283.1,175.8z"/>
	<path class="st0" d="M306.3,151c0.2-1.2,0.3-2.3,0.3-2.5c0-1.2-2.1-1.2-3.2-1.2c-0.1,0-0.2-0.2-0.2-0.4c0-0.5,0.3-1,0.5-1.2
		c2.6-0.1,6.9-1.3,8.4-1.9c0.3,0.2,0.5,0.7,0.5,1.2c0,0.6-0.6,3.5-0.9,4.7l-5.3,27.1c0,0.2-0.1,1.1-0.1,1.4c0,0.5,0,1.4,0.6,1.4
		c1.2,0,3.7-2.8,4-3.1c0.2,0,0.9,1,0.9,1.4c-0.7,1.4-5.5,6.1-8.6,6.1c-1.4,0-2.5-1.2-2.5-3.1c0-0.7,0.3-2.8,0.5-3.7L306.3,151z"/>
	<path class="st0" d="M324.8,161.2c0,0.7-0.3,2.8-0.5,3.7l-1.7,8.2c-0.1,0.6-0.5,2.6-0.5,3.2c0,1.4,0.3,2.4,1.4,2.4
		c2.1,0,7.4-8.4,8.7-15l1.1-5.3c0.6-0.2,1.9-0.3,2.5-0.3c0.6,0,2,0.1,2.7,0.3l-3.5,18.3c-0.1,0.3-0.1,1.1-0.1,1.4
		c0,0.5,0,1.4,0.6,1.4c1.2,0,3.7-2.8,4-3.1c0.2,0,0.9,1,0.9,1.4c-0.7,1.4-5.5,6.1-8.6,6.1c-1.4,0-2.5-1.2-2.5-3.1
		c0-0.7,0.2-2.2,0.4-3.4c0,0,0.6-3.4,0.6-3.4c-1.2,2.5-6.5,9.9-9.8,9.9c-2.9,0-3.9-2.3-3.9-5c0-2,0.5-4.3,0.9-6.2l1.4-7
		c0.1-0.3,0.2-1.5,0.2-1.8c0-0.5,0-1.4-0.6-1.4c-1.1,0-3.4,2.6-3.7,2.9c-0.2,0-0.9-1-0.9-1.4c0.7-1.4,5.4-5.9,8.3-5.9
		C323.7,158,324.8,159.2,324.8,161.2z"/>
	<path class="st0" d="M352.9,152.1c0.7,0,1.1,0.1,1.4,0.1l-1.4,6.9h5.1c0.3,0,0.4,0.5,0.4,0.9c0,0.7-0.3,1.5-0.6,2h-5.5l-2.9,14.8
		c-0.1,0.2-0.1,1.1-0.1,1.4c0,0.5,0,1.4,0.6,1.4c1.2,0,3.7-2.8,4-3.1c0.2,0,0.9,1,0.9,1.4c-0.7,1.4-5.5,6.1-8.6,6.1
		c-1.4,0-2.5-1.2-2.5-3.1c0-0.7,0.3-2.8,0.5-3.7l2.9-15.2h-3.7c-0.1,0-0.2-0.5-0.2-0.7c0-0.9,0.5-2,0.8-2.2h3.7l1.2-6.3
		C349.1,152.2,351.6,152.1,352.9,152.1z"/>
	<path class="st0" d="M369.6,161.2c0,0.7-0.3,2.8-0.5,3.7l-2.3,11.9c-0.1,0.2-0.1,1.1-0.1,1.4c0,0.5,0,1.4,0.6,1.4
		c1.2,0,3.7-2.8,4-3.1c0.2,0,0.9,1,0.9,1.4c-0.7,1.4-5.5,6.1-8.6,6.1c-1.4,0-2.5-1.2-2.5-3.1c0-0.7,0.3-2.8,0.5-3.7l2.2-11.5
		c0.1-0.3,0.2-1.5,0.2-1.8c0-0.5,0-1.4-0.6-1.4c-1.1,0-3.4,2.6-3.7,2.9c-0.2,0-0.9-1-0.9-1.4c0.7-1.4,5.4-5.9,8.3-5.9
		C368.6,158,369.6,159.2,369.6,161.2z M371.6,148c0,2.2-1.7,4.2-3.8,4.2c-1.6,0-2.7-1.4-2.7-3.1c0-2.1,1.7-4.1,3.7-4.1
		C370.5,145.1,371.6,146.4,371.6,148z"/>
	<path class="st0" d="M395.8,167.1c0,8.4-6.6,16.7-13.3,16.7c-5.5,0-7.8-3.7-7.8-9c0-7.9,6.5-16.8,13.3-16.8
		C393.4,158,395.8,161.8,395.8,167.1z M380.5,175.8c0,3.3,1.1,5.3,2.8,5.3c4,0,6.8-9.2,6.7-15c0-3.2-0.9-5.3-2.7-5.3
		C383.6,160.8,380.4,169.4,380.5,175.8z"/>
	<path class="st0" d="M408.7,161.2c0,0.7-0.2,2.3-0.4,3.4c0,0-0.6,3.4-0.6,3.4c1.2-2.5,6.7-9.9,10-9.9c2.9,0,3.9,2.3,3.9,5
		c0,2-0.5,4.3-0.9,6.2l-1.5,7.5c-0.1,0.2-0.1,1.1-0.1,1.4c0,0.5,0,1.4,0.6,1.4c1.2,0,3.7-2.8,4-3.1c0.2,0,0.9,1,0.9,1.4
		c-0.7,1.4-5.5,6.1-8.6,6.1c-1.4,0-2.5-1.2-2.5-3.1c0-0.7,0.3-2.8,0.5-3.7l1.7-8.2c0.1-0.6,0.5-2.6,0.5-3.2c0-1.4-0.3-2.4-1.4-2.4
		c-2.1,0-7.7,8.4-9,15l-1.1,5.3c-0.6,0.2-1.9,0.3-2.5,0.3c-0.6,0-2-0.1-2.7-0.3l3.4-17.9c0.1-0.3,0.2-1.5,0.2-1.8
		c0-0.5,0-1.4-0.6-1.4c-1.1,0-3.4,2.6-3.7,2.9c-0.2,0-0.9-1-0.9-1.4c0.7-1.4,5.4-5.9,8.3-5.9C407.7,158,408.7,159.2,408.7,161.2z"/>
	<path class="st0" d="M443.4,159.9c0.3,0.5,0.5,1.2,0.5,1.7c0,1.7-0.9,3-2.1,3c-2.5,0-2.3-3.9-5.5-3.9c-1.6,0-2.3,1.1-2.3,2.6
		c0,3.9,7.1,8.4,7.1,13.5c0,4.3-4,7.2-9,7.2c-2.4,0-4.3-0.8-5.5-2c-0.2-0.3-0.4-1.1-0.4-1.5c0-1.7,0.9-3.1,2.1-3.1
		c2.5,0,2.5,3.9,5.5,3.9c1.6,0,2.4-1.1,2.4-2.6c0-3.9-7.1-8.4-7.1-13.5c0-3.6,3.9-7.2,8.8-7.2C440.5,158,442.2,158.7,443.4,159.9z"
		/>
</g>
<path class="st0" d="M249.8,273.9c0,0-100-186.4-113-273.9l-3.1,2.3C119.4,90.7,21.1,273.9,21.1,273.9h36.7
	c-7.8-34.4,62.6-80.6,77.6-91.1h0c15,10.5,85.5,56.8,77.6,91.1H249.8z M135.4,179.9L135.4,179.9c-14.4-13.6-15.8-32.8-15.8-52.9
	c0-22.5,6.4-42.9,15.8-53.4c9.4,10.5,15.8,30.9,15.8,53.4C151.2,147.2,149.9,166.3,135.4,179.9z"/>
<path class="st1" d="M239.2,283.9c0,0-101.6-189.4-113.3-276l-2.4,1.8c-12.8,87.4-113,274.2-113,274.2h36.7
	c-7.8-34.4,62.6-80.6,77.6-91.1h0c15,10.5,85.5,56.8,77.6,91.1H239.2z M124.8,190.9L124.8,190.9C110.4,177.3,109,158.2,109,138
	c0-22.5,6.4-42.9,15.8-53.4c9.4,10.5,15.8,30.9,15.8,53.4C140.6,158.2,139.3,177.3,124.8,190.9z"/>
<path class="st2" d="M228.6,293.9c0,0-103.2-192.4-113.5-278l-1.8,1.3C102.1,103.5-0.1,293.9-0.1,293.9h36.7
	c-7.8-34.4,62.6-80.6,77.6-91.1h0c15,10.5,85.5,56.8,77.6,91.1H228.6z M114.2,200.9L114.2,200.9c-14.4-13.6-15.8-32.8-15.8-52.9
	c0-22.5,6.4-42.9,15.8-53.4c9.4,10.5,15.8,30.9,15.8,53.4C130,168.2,128.7,187.3,114.2,200.9z"/>
</svg>
